M48
METRIC,0000.00
T01C0.4
T02C0.486
T03C1.1
%
T01
X+001230Y+002975
X+001470Y+002975
X+001595Y+002700
X+002165Y+002685
X+002170Y+002220
X+002495Y+003095
T02
X+003615Y+002100
X+003615Y+002260
X+003615Y+001940
X+003320Y+001805
X+002725Y+001245
X+002440Y+002010
X+002655Y+002405
X+002950Y+002950
X+002705Y+003045
X+003455Y+002645
X+003705Y+002645
X+003985Y+002650
X+004240Y+002645
X+004515Y+002650
X+004790Y+002650
X+005060Y+002650
X+005350Y+002650
X+005625Y+002645
X+005895Y+002650
X+006140Y+002650
X+006135Y+002410
X+006135Y+002175
X+006130Y+001885
X+006045Y+001755
X+006135Y+001620
X+005945Y+001615
X+005640Y+001615
X+005645Y+001325
X+005325Y+001615
X+004645Y+001940
X+004645Y+002100
X+004645Y+002260
X+001960Y+002470
X+001885Y+001915
X+001800Y+001510
X+001795Y+001335
T03
X+001175Y+001175
X+001175Y+001429
X+001175Y+001955
X+001175Y+002209
T00
M30
