G04 DipTrace 2.4.0.2*
%INВерхний.gbr*%
%MOMM*%
%ADD13C,0.25*%
%ADD14C,0.33*%
%ADD15C,0.3*%
%ADD16C,1.0*%
%ADD17C,2.0*%
%ADD19C,0.4*%
%ADD20C,0.635*%
%ADD24R,1.3X1.5*%
%ADD25R,0.9X0.7*%
%ADD26R,0.7X0.9*%
%ADD28R,0.6X0.6*%
%ADD29R,0.49X0.62*%
%ADD30R,2.0X1.3*%
%ADD31R,1.2X1.3*%
%ADD32C,1.0*%
%ADD33R,0.3X1.4*%
%ADD34R,1.4X0.4*%
%ADD35R,1.7X1.7*%
%ADD36C,1.7*%
%ADD38R,5.5X2.0*%
%ADD39C,1.016*%
%ADD41C,0.9*%
%FSLAX53Y53*%
G04*
G71*
G90*
G75*
G01*
%LNTop*%
%LPD*%
X19600Y23450D2*
D13*
X18750D1*
X17750Y24450D1*
X17050D1*
X42350Y16950D2*
Y15950D1*
X39250Y12850D1*
X33450D1*
X32200Y11600D1*
X21500D1*
X18000Y15100D1*
X19600Y24700D2*
Y23450D1*
X24000Y21500D2*
D14*
X22800D1*
X22450Y21150D1*
Y20100D1*
X22475Y20075D1*
X31150Y24250D2*
D15*
Y25115D1*
D14*
Y25300D1*
X30750Y25700D1*
Y26450D1*
X29750D1*
X29500Y26700D1*
X29300Y24050D2*
Y25150D1*
Y26500D1*
X29500Y26700D1*
X23500Y28250D2*
X29500D1*
D16*
Y26700D1*
X21050Y30950D2*
D14*
Y30150D1*
X21500Y29700D1*
X23000D1*
X23500Y29200D1*
Y28250D1*
X34400Y21450D2*
X35700D1*
X36150Y21000D1*
X29500Y29500D2*
D16*
Y28250D1*
X24400Y20100D2*
D14*
X22450D1*
X39050Y14700D2*
Y18800D1*
X38900Y18950D1*
X42800D1*
X46450Y22600D1*
X57050Y11400D2*
X57000D1*
Y12700D1*
X56450Y13250D1*
X33600Y28200D2*
Y26450D1*
X33450Y26300D1*
X34400D1*
X34550Y26450D1*
X15750Y21750D2*
D13*
X15050D1*
X12300Y24500D1*
Y29750D1*
X14700D2*
X14850D1*
X16050Y30950D1*
X15750Y23050D2*
X15000D1*
X13500Y24550D1*
Y30900D1*
X13550Y30950D1*
X19600Y22800D2*
X18100D1*
X17850Y23050D1*
X17050D1*
X19600Y22800D2*
X21100D1*
X21700Y22200D1*
X17950Y13350D2*
X20350Y10950D1*
X38600D1*
X39050Y11400D1*
X17050Y21750D2*
X17800D1*
X18200Y22150D1*
X19600D1*
X22650Y12450D2*
D14*
Y15700D1*
X22600Y15750D1*
X31650Y19850D2*
D13*
Y18400D1*
X31300Y18050D1*
X26600D1*
X24500Y15950D1*
X22800D1*
X22600Y15750D1*
X31776Y12500D2*
D14*
Y15426D1*
X32100Y15750D1*
X32150Y19850D2*
D13*
Y15800D1*
D14*
X32100Y15750D1*
X33150Y24250D2*
D13*
Y23150D1*
X33550Y22750D1*
X34400D1*
X31650Y24250D2*
Y26410D1*
X31610Y26450D1*
D14*
Y27510D1*
X31700Y27600D1*
Y28900D2*
Y30150D1*
X32230Y30680D1*
X32720D1*
X14350Y19150D2*
X12150D1*
X11750Y19550D1*
X37750Y14700D2*
Y16850D1*
X37850Y16950D1*
X22200Y28250D2*
X20750D1*
X20650Y28150D1*
X19250Y28300D2*
X20500D1*
X20650Y28150D1*
X60550Y13250D2*
Y14750D1*
X60450D1*
X24000Y23450D2*
D13*
X22750D1*
X20650Y25550D1*
Y26850D1*
X23550Y30950D2*
X24950D1*
X21650Y26850D2*
X20650D1*
X33580Y30680D2*
D19*
X36200D1*
D17*
X67000D1*
Y11200D1*
X60700D1*
X33600Y29500D2*
D14*
Y30660D1*
X33580Y30680D1*
X16450Y18550D2*
D13*
Y17850D1*
X14350D1*
X31150Y19850D2*
Y20900D1*
X30950Y21100D1*
X29350D1*
X28600Y20350D1*
X24000Y22150D2*
X25650D1*
X26465Y21335D1*
X27400Y20400D1*
X28550D1*
X28600Y20350D1*
X26465Y21385D2*
Y21335D1*
X16450Y17850D2*
X24850D1*
X27400Y20400D1*
X32650Y24250D2*
Y22900D1*
X31850Y22100D1*
X28600D1*
X24000Y22800D2*
X27900D1*
X28600Y22100D1*
D39*
X18000Y15100D3*
X19600Y24700D3*
X29500Y29500D3*
X24400Y20100D3*
D41*
X21700Y22200D3*
D39*
X17950Y13350D3*
D41*
X24950Y30950D3*
X21650Y26850D3*
X12300Y29750D3*
X14700D3*
D39*
X36150Y21000D3*
X46450D3*
X36150Y19400D3*
Y22600D3*
X46450D3*
Y19400D3*
X26550Y24050D3*
X18850Y19150D3*
X33200Y18050D3*
X27250Y12450D3*
X56450Y13250D3*
X53250Y16150D3*
X60450Y17550D3*
X56400Y16150D3*
X59450D3*
X61350Y16200D3*
X61300Y18850D3*
X61350Y21750D3*
Y24100D3*
X61400Y26500D3*
X58950D3*
X56250Y26450D3*
X53500Y26500D3*
X50600D3*
X47900D3*
X45150D3*
X42400Y26450D3*
X39850Y26500D3*
X37050Y26450D3*
X34550D3*
D41*
X15950Y27000D3*
D39*
X27050Y30450D3*
X35836Y22601D2*
D20*
X46921D1*
X35846Y21969D2*
X46921D1*
X35856Y21338D2*
X46921D1*
X35856Y20706D2*
X46921D1*
X35866Y20074D2*
X46921D1*
X35876Y19443D2*
X46921D1*
X35771Y23226D2*
X35818Y18818D1*
X46982D1*
Y23233D1*
X35761D1*
X10681Y30751D2*
X11948D1*
X26035D2*
X31167D1*
X10681Y30119D2*
X11263D1*
X16818D2*
X17782D1*
X19318D2*
X20233D1*
X25638D2*
X28527D1*
X30470D2*
X30879D1*
X10681Y29487D2*
X11224D1*
X15776D2*
X20580D1*
X24259D2*
X28339D1*
X10681Y28856D2*
X11521D1*
X15300D2*
X16840D1*
X10681Y28224D2*
X11521D1*
X14278D2*
X16840D1*
X10681Y27592D2*
X11521D1*
X14278D2*
X16840D1*
X10681Y26961D2*
X11521D1*
X14278D2*
X19647D1*
X22751D2*
X26295D1*
X10681Y26329D2*
X11521D1*
X14278D2*
X19647D1*
X22612D2*
X26295D1*
X32514D2*
X61468D1*
X10681Y25697D2*
X11521D1*
X14278D2*
X19072D1*
X21580D2*
X26295D1*
X32514D2*
X36594D1*
X39102D2*
X41098D1*
X43607D2*
X61468D1*
X10681Y25066D2*
X11521D1*
X14278D2*
X14640D1*
X18177D2*
X18496D1*
X22215D2*
X26890D1*
X33953D2*
X36594D1*
X39102D2*
X41098D1*
X43607D2*
X61468D1*
X10681Y24434D2*
X11521D1*
X22840D2*
X26890D1*
X33953D2*
X36594D1*
X39102D2*
X41098D1*
X43607D2*
X61468D1*
X10681Y23802D2*
X11918D1*
X25360D2*
X26890D1*
X33953D2*
X34848D1*
X47903D2*
X61468D1*
X10681Y23171D2*
X12553D1*
X47953D2*
X61468D1*
X10681Y22539D2*
X13178D1*
X47953D2*
X61468D1*
X10681Y21907D2*
X13813D1*
X32732D2*
X33399D1*
X47953D2*
X61468D1*
X10681Y21276D2*
X14448D1*
X31820D2*
X33399D1*
X47953D2*
X61468D1*
X13256Y20644D2*
X15490D1*
X17403D2*
X20074D1*
X25420D2*
X26077D1*
X47953D2*
X61468D1*
X17403Y20012D2*
X20074D1*
X25559D2*
X25938D1*
X33953D2*
X34828D1*
X47953D2*
X61468D1*
X17403Y19381D2*
X20074D1*
X33953D2*
X34838D1*
X47953D2*
X61468D1*
X17403Y18749D2*
X24668D1*
X33953D2*
X34838D1*
X47953D2*
X61468D1*
X32931Y18117D2*
X34987D1*
X47814D2*
X61468D1*
X10681Y17486D2*
X13347D1*
X32931D2*
X36594D1*
X43607D2*
X61468D1*
X10681Y16854D2*
X13347D1*
X15359D2*
X19191D1*
X26482D2*
X28696D1*
X35510D2*
X36594D1*
X43607D2*
X61468D1*
X10681Y16222D2*
X19191D1*
X26005D2*
X28696D1*
X35510D2*
X36594D1*
X43607D2*
X61468D1*
X10681Y15591D2*
X16949D1*
X26005D2*
X28696D1*
X35510D2*
X36644D1*
X43031D2*
X56765D1*
X10681Y14959D2*
X16849D1*
X26005D2*
X28696D1*
X35510D2*
X36644D1*
X42436D2*
X56755D1*
X10681Y14327D2*
X17157D1*
X26005D2*
X28696D1*
X35510D2*
X36644D1*
X41801D2*
X56745D1*
X10681Y13696D2*
X16840D1*
X23475D2*
X30958D1*
X32593D2*
X39015D1*
X41176D2*
X56735D1*
X13256Y13064D2*
X16820D1*
X25053D2*
X29371D1*
X40541D2*
X56716D1*
X13256Y12432D2*
X17276D1*
X25053D2*
X29371D1*
X40710D2*
X55396D1*
X13256Y11801D2*
X18417D1*
X40710D2*
X55396D1*
X13256Y11169D2*
X19052D1*
X40710D2*
X55396D1*
X30587Y28043D2*
X30743D1*
Y27358D1*
X30758Y27828D1*
X30767Y28643D1*
X30758Y28493D1*
Y29943D1*
X30946D1*
X30943Y30150D1*
X31014Y30466D1*
X31164Y30686D1*
X31795Y31298D1*
X31765Y31382D1*
X25901D1*
X25973Y31149D1*
X25993Y30950D1*
X25945Y30637D1*
X25805Y30354D1*
X25587Y30125D1*
X25310Y29972D1*
X25000Y29909D1*
X24685Y29942D1*
X24395Y30067D1*
X24298Y30151D1*
X23984Y29947D1*
X23860Y29914D1*
X24036Y29736D1*
X24209Y29462D1*
X24258Y29190D1*
X24543Y29193D1*
Y29004D1*
X28411Y29008D1*
X28400Y29535D1*
X28456Y29847D1*
X28597Y30130D1*
X28814Y30360D1*
X29087Y30520D1*
X29394Y30595D1*
X29710Y30580D1*
X30009Y30476D1*
X30265Y30291D1*
X30459Y30040D1*
X30573Y29745D1*
X30593Y29451D1*
Y28042D1*
X30758Y28175D1*
Y28493D1*
X26959Y24207D2*
Y25358D1*
X26358D1*
Y27495D1*
X24549Y27493D1*
X24543Y27308D1*
X22578D1*
X22673Y27049D1*
X22692Y26850D1*
X22645Y26537D1*
X22505Y26254D1*
X22287Y26025D1*
X22010Y25872D1*
X21700Y25809D1*
X21404Y25808D1*
X22974Y24240D1*
X25293Y24243D1*
Y23523D1*
X26967Y23518D1*
X26957Y23870D1*
Y25356D1*
X18525Y29243D2*
X20293D1*
Y29193D1*
X20928D1*
X20514Y29614D1*
X20341Y29888D1*
X20293Y30160D1*
X20105Y30401D1*
X19988Y30695D1*
X19959Y31010D1*
X20022Y31320D1*
X20055Y31381D1*
X19551Y31382D1*
X19625Y31146D1*
X19641Y30887D1*
X19597Y30637D1*
X19496Y30404D1*
X19345Y30201D1*
X19151Y30038D1*
X18925Y29924D1*
X18678Y29865D1*
X18425D1*
X18178Y29923D1*
X17951Y30036D1*
X17757Y30199D1*
X17605Y30401D1*
X17504Y30634D1*
X17460Y30883D1*
X17474Y31136D1*
X17546Y31381D1*
X17051Y31382D1*
X17125Y31146D1*
X17143Y30950D1*
X17097Y30637D1*
X16963Y30350D1*
X16753Y30114D1*
X16484Y29947D1*
X16178Y29865D1*
X15991Y29870D1*
X15736Y29622D1*
X15695Y29437D1*
X15555Y29154D1*
X15337Y28925D1*
X15060Y28772D1*
X14750Y28709D1*
X14435Y28742D1*
X14209Y28840D1*
X14218Y27090D1*
X14232Y24833D1*
X14702Y24363D1*
X14707Y25393D1*
X18093D1*
Y25085D1*
X18257Y24957D1*
X18500Y24735D1*
X18556Y25047D1*
X18697Y25330D1*
X18914Y25560D1*
X19187Y25720D1*
X19494Y25795D1*
X19810Y25780D1*
X19707Y25808D1*
Y27365D1*
X18207Y27358D1*
X16907D1*
Y29243D1*
X18993Y29241D1*
X32643Y26631D2*
Y26558D1*
X32454D1*
X32447Y25548D1*
X32393Y25543D1*
X33893D1*
Y23786D1*
X34916Y23793D1*
X34938Y23847D1*
X35161Y24067D1*
X35450Y24142D1*
X36651D1*
X36657Y26143D1*
X39042D1*
Y24148D1*
X41155Y24142D1*
X41157Y26143D1*
X43542D1*
Y24148D1*
X47300Y24142D1*
X47603Y24059D1*
X47830Y23814D1*
X47893Y23550D1*
Y18500D1*
X47809Y18197D1*
X47564Y17970D1*
X47300Y17907D1*
X43540D1*
X43542Y15708D1*
X43017D1*
X42992Y15635D1*
X42857Y15443D1*
X40058Y12643D1*
X40643D1*
Y10688D1*
X55455Y10669D1*
X55458Y12643D1*
X56777D1*
X56833Y15706D1*
X56993Y15971D1*
X57150Y16017D1*
X61533D1*
Y26632D1*
X32650D1*
X23518Y19346D2*
Y19133D1*
X21433Y19142D1*
X21392Y19133D1*
X20133D1*
X20131Y20707D1*
X18308D1*
X18299Y21237D1*
X18126Y21113D1*
X18093Y20808D1*
X17348D1*
X17343Y19858D1*
X15558D1*
Y20808D1*
X14707D1*
Y21115D1*
X14543Y21243D1*
X11793Y23993D1*
X11623Y24269D1*
X11666Y24165D1*
X11583Y24500D1*
Y28995D1*
X11506Y29074D1*
X11340Y29343D1*
X11262Y29650D1*
X11280Y29966D1*
X11392Y30262D1*
X11587Y30511D1*
X11848Y30689D1*
X12150Y30782D1*
X12476Y30776D1*
X12459Y31010D1*
X12522Y31320D1*
X12555Y31381D1*
X10618Y31382D1*
X10625Y20993D1*
X13193D1*
Y19911D1*
X13407Y20013D1*
Y20193D1*
X15293D1*
X15303Y18567D1*
X15551D1*
X15558Y19442D1*
X17343D1*
Y18559D1*
X18673Y18567D1*
X24567Y18582D1*
X26384Y20399D1*
X25348Y21438D1*
X25283Y21433D1*
Y21358D1*
X25293Y20737D1*
X25359Y20640D1*
X25473Y20345D1*
X25501Y20100D1*
X25455Y19787D1*
X25322Y19500D1*
X25113Y19262D1*
X24845Y19094D1*
X24541Y19009D1*
X24224Y19014D1*
X23923Y19108D1*
X23660Y19285D1*
X23616Y19339D1*
X23406Y13393D2*
X24993D1*
Y12318D1*
X29433Y12319D1*
Y13443D1*
X31018Y13453D1*
Y14157D1*
X28758Y14158D1*
Y17333D1*
X26883Y17318D1*
X25936Y16371D1*
X25942Y14158D1*
X23412D1*
X23407Y13388D1*
X23692Y13383D1*
X13417Y18108D2*
X13407Y18395D1*
X13189Y18393D1*
X13193Y18108D1*
X10623D1*
X10618Y13602D1*
X10625Y13193D1*
X13193D1*
Y10722D1*
X16650Y10711D1*
X19577Y10708D1*
X18026Y12260D1*
X17774Y12264D1*
X17473Y12358D1*
X17210Y12535D1*
X17009Y12779D1*
X16886Y13071D1*
X16850Y13385D1*
X16906Y13697D1*
X17047Y13980D1*
X17306Y14235D1*
X17059Y14529D1*
X16936Y14821D1*
X16900Y15135D1*
X16956Y15447D1*
X17097Y15730D1*
X17314Y15960D1*
X17587Y16120D1*
X17894Y16195D1*
X18210Y16180D1*
X18509Y16076D1*
X18765Y15891D1*
X18959Y15640D1*
X19073Y15345D1*
X19091Y15032D1*
X19258Y14857D1*
Y17124D1*
X17547Y17133D1*
X15289D1*
X15293Y16808D1*
X13407D1*
Y18385D1*
X31819Y21143D2*
X31893Y21133D1*
X32098Y21143D1*
X33458Y21152D1*
Y22035D1*
X33339Y22064D1*
X33022Y22264D1*
X32357Y21593D1*
X32081Y21423D1*
X32185Y21466D1*
X31850Y21383D1*
X31681D1*
X31860Y21143D1*
X32393Y21133D1*
X33042Y21143D1*
X33393Y21141D1*
X32875Y17343D2*
X35443D1*
Y14158D1*
X32534Y14156D1*
X32529Y13443D1*
X32819D1*
Y13234D1*
X32943Y13357D1*
X33219Y13527D1*
X33115Y13484D1*
X33450Y13568D1*
X38967Y13582D1*
X39140Y13758D1*
X38008Y13767D1*
X38157Y13758D1*
X36708D1*
Y15643D1*
X36992Y15653D1*
Y15702D1*
X36657Y15708D1*
Y17900D1*
X35500Y17907D1*
X35197Y17991D1*
X34972Y18231D1*
X34908Y18494D1*
X34889Y20409D1*
X33884Y20407D1*
X33893Y18558D1*
X32867Y18550D1*
Y17340D1*
X26359Y26700D2*
D13*
X27600D1*
X26959Y24050D2*
X28000D1*
X26959Y25150D2*
X28000D1*
X17950Y29241D2*
Y27359D1*
X16909Y28300D2*
X17950D1*
X21175Y20075D2*
Y19134D1*
X20134Y20075D2*
X21175D1*
X23950Y13391D2*
Y12450D1*
X24991D1*
X30476Y13441D2*
Y12500D1*
X29435D2*
X30476D1*
X16450Y20750D2*
Y19859D1*
X15559Y20750D2*
X17341D1*
X15750Y25391D2*
Y24450D1*
X14709D2*
X15750D1*
X55459Y11400D2*
X57050D1*
X18550Y30950D2*
Y29859D1*
X17459Y30950D2*
X19641D1*
X32650Y21141D2*
Y18559D1*
X32150Y25541D2*
Y24250D1*
X19600Y21500D2*
Y20709D1*
X18309Y21500D2*
X19600D1*
D24*
X27600Y26700D3*
X29500D3*
D25*
X28000Y24050D3*
X29300D3*
X28000Y25150D3*
X29300D3*
X19250Y28300D3*
X17950D3*
D26*
X31700Y27600D3*
Y28900D3*
D25*
X22475Y20075D3*
X21175D3*
X23950Y12450D3*
X22650D3*
D26*
X33600Y28200D3*
Y29500D3*
D25*
X30476Y12500D3*
X31776D3*
D26*
X60550Y13250D3*
Y11950D3*
X60450Y16050D3*
Y14750D3*
D28*
X16450Y18550D3*
Y20750D3*
D29*
X31610Y26450D3*
X30750D3*
X32720Y30680D3*
X33580D3*
D25*
X23500Y28250D3*
X22200D3*
D26*
X20650Y28150D3*
Y26850D3*
X34400Y21450D3*
Y22750D3*
D25*
X15750Y21750D3*
X17050D3*
X15750Y23050D3*
X17050D3*
D26*
X14350Y19150D3*
Y17850D3*
D25*
X17050Y24450D3*
X15750D3*
X39050Y14700D3*
X37750D3*
D30*
X57050Y11400D3*
X39050D3*
D31*
X42350Y24900D3*
X37850D3*
Y16950D3*
X42350D3*
D32*
X28600Y20350D3*
Y22100D3*
X23550Y30950D3*
X21050D3*
X18550D3*
X16050D3*
X13550D3*
D33*
X31150Y19850D3*
X31650D3*
X32150D3*
X32650D3*
X33150D3*
Y24250D3*
X32650D3*
X32150D3*
X31650D3*
X31150D3*
D34*
X24000Y21500D3*
Y22150D3*
Y22800D3*
Y23450D3*
X19600D3*
Y22800D3*
Y22150D3*
Y21500D3*
D35*
X11750Y11750D3*
D36*
Y14290D3*
D35*
Y19550D3*
D36*
Y22090D3*
D38*
X22600Y15750D3*
X32100D3*
M02*
