G04 DipTrace 2.4.0.2*
%INВерхняямаркировка.gbr*%
%MOMM*%
%ADD10C,0.1*%
%ADD27O,0.24X0.24*%
%ADD37O,0.391X0.393*%
%ADD77C,0.111*%
%FSLAX53Y53*%
G04*
G71*
G90*
G75*
G01*
%LNTopSilk*%
%LPD*%
X26549Y26051D2*
D10*
Y27350D1*
X15850Y18850D2*
Y20450D1*
X17050Y18850D2*
Y20450D1*
D27*
X16450Y17910D3*
X40050Y10550D2*
D10*
Y10000D1*
X56050D1*
Y10550D1*
Y12250D2*
Y12800D1*
X40050D1*
Y12250D1*
X43100Y17925D2*
Y23925D1*
X37100D1*
Y17925D1*
X43100D1*
X38600Y20975D2*
X38604Y21080D1*
X38615Y21184D1*
X38633Y21287D1*
X38658Y21389D1*
X38690Y21488D1*
X38730Y21585D1*
X38776Y21679D1*
X38828Y21770D1*
X38886Y21857D1*
X38951Y21939D1*
X39021Y22017D1*
X39096Y22090D1*
X39177Y22157D1*
X39261Y22219D1*
X39350Y22274D1*
X39442Y22323D1*
X39538Y22366D1*
X39636Y22402D1*
X39737Y22431D1*
X39840Y22453D1*
X39943Y22467D1*
X40048Y22474D1*
X40152D1*
X40257Y22467D1*
X40360Y22453D1*
X40463Y22431D1*
X40564Y22402D1*
X40662Y22366D1*
X40758Y22323D1*
X40850Y22274D1*
X40939Y22219D1*
X41023Y22157D1*
X41104Y22090D1*
X41179Y22017D1*
X41249Y21939D1*
X41314Y21857D1*
X41372Y21770D1*
X41424Y21679D1*
X41470Y21585D1*
X41510Y21488D1*
X41542Y21389D1*
X41567Y21287D1*
X41585Y21184D1*
X41596Y21080D1*
X41600Y20975D1*
X41596Y20870D1*
X41585Y20766D1*
X41567Y20663D1*
X41542Y20561D1*
X41510Y20462D1*
X41470Y20365D1*
X41424Y20271D1*
X41372Y20180D1*
X41314Y20093D1*
X41249Y20011D1*
X41179Y19933D1*
X41104Y19860D1*
X41023Y19793D1*
X40939Y19731D1*
X40850Y19676D1*
X40758Y19626D1*
X40662Y19584D1*
X40564Y19548D1*
X40463Y19519D1*
X40360Y19497D1*
X40257Y19483D1*
X40152Y19476D1*
X40048D1*
X39943Y19483D1*
X39840Y19497D1*
X39737Y19519D1*
X39636Y19548D1*
X39538Y19584D1*
X39442Y19626D1*
X39350Y19676D1*
X39261Y19731D1*
X39177Y19793D1*
X39096Y19860D1*
X39021Y19933D1*
X38951Y20011D1*
X38886Y20093D1*
X38828Y20180D1*
X38776Y20271D1*
X38730Y20365D1*
X38690Y20462D1*
X38658Y20561D1*
X38633Y20663D1*
X38615Y20766D1*
X38604Y20870D1*
X38600Y20975D1*
X30650Y20950D2*
X33650D1*
Y23150D2*
X30650D1*
X33650D2*
Y20950D1*
X30650D2*
Y21650D1*
Y22450D2*
Y23150D1*
Y21650D2*
G03X30650Y22450I0J400D01*
G01*
X22900Y20975D2*
Y23975D1*
X20700Y20975D2*
Y23975D1*
X22900D2*
X20700D1*
X22900Y20975D2*
X22200D1*
X21400D2*
X20700D1*
X22200D2*
G03X21400Y20975I-400J0D01*
G01*
X10480Y10480D2*
X13020D1*
Y15560D1*
X10480D1*
Y10480D1*
Y18280D2*
X13020D1*
Y23360D1*
X10480D1*
Y18280D1*
D37*
X20403Y17312D3*
X21650Y17450D2*
D10*
Y18200D1*
X33050Y13300D2*
Y14050D1*
X21650Y13300D2*
X33050D1*
X21650D2*
Y14050D1*
X33050Y17450D2*
Y18200D1*
X21650D2*
X33050D1*
X28481Y28672D2*
D77*
X28433Y28769D1*
X28335Y28867D1*
X28239Y28915D1*
X28044D1*
X27947Y28867D1*
X27850Y28769D1*
X27801Y28672D1*
X27752Y28526D1*
Y28283D1*
X27801Y28138D1*
X27850Y28040D1*
X27947Y27944D1*
X28044Y27894D1*
X28239D1*
X28335Y27944D1*
X28433Y28040D1*
X28481Y28138D1*
X28703Y28720D2*
X28801Y28769D1*
X28947Y28914D1*
Y27894D1*
X26313Y24022D2*
X26265Y24119D1*
X26167Y24217D1*
X26070Y24265D1*
X25876D1*
X25778Y24217D1*
X25682Y24119D1*
X25632Y24022D1*
X25584Y23876D1*
Y23633D1*
X25632Y23488D1*
X25682Y23390D1*
X25778Y23294D1*
X25876Y23244D1*
X26070D1*
X26167Y23294D1*
X26265Y23390D1*
X26313Y23488D1*
X26585Y24021D2*
Y24070D1*
X26633Y24167D1*
X26681Y24216D1*
X26779Y24264D1*
X26973D1*
X27070Y24216D1*
X27118Y24167D1*
X27168Y24070D1*
Y23973D1*
X27118Y23875D1*
X27022Y23730D1*
X26535Y23244D1*
X27216D1*
X26363Y25372D2*
X26315Y25469D1*
X26217Y25567D1*
X26120Y25615D1*
X25926D1*
X25828Y25567D1*
X25732Y25469D1*
X25682Y25372D1*
X25634Y25226D1*
Y24983D1*
X25682Y24838D1*
X25732Y24740D1*
X25828Y24644D1*
X25926Y24594D1*
X26120D1*
X26217Y24644D1*
X26315Y24740D1*
X26363Y24838D1*
X26683Y25614D2*
X27216D1*
X26926Y25225D1*
X27072D1*
X27168Y25177D1*
X27216Y25129D1*
X27266Y24983D1*
Y24886D1*
X27216Y24740D1*
X27120Y24642D1*
X26974Y24594D1*
X26828D1*
X26683Y24642D1*
X26635Y24692D1*
X26585Y24788D1*
X18589Y29672D2*
X18541Y29769D1*
X18443Y29867D1*
X18346Y29915D1*
X18152D1*
X18054Y29867D1*
X17958Y29769D1*
X17908Y29672D1*
X17860Y29526D1*
Y29283D1*
X17908Y29138D1*
X17958Y29040D1*
X18054Y28944D1*
X18152Y28894D1*
X18346D1*
X18443Y28944D1*
X18541Y29040D1*
X18589Y29138D1*
X19297Y28894D2*
Y29914D1*
X18811Y29234D1*
X19540D1*
X30213Y29872D2*
X30165Y29969D1*
X30067Y30067D1*
X29970Y30115D1*
X29776D1*
X29678Y30067D1*
X29582Y29969D1*
X29532Y29872D1*
X29484Y29726D1*
Y29483D1*
X29532Y29338D1*
X29582Y29240D1*
X29678Y29144D1*
X29776Y29094D1*
X29970D1*
X30067Y29144D1*
X30165Y29240D1*
X30213Y29338D1*
X31018Y30114D2*
X30533D1*
X30485Y29677D1*
X30533Y29725D1*
X30679Y29775D1*
X30824D1*
X30970Y29725D1*
X31068Y29629D1*
X31116Y29483D1*
Y29386D1*
X31068Y29240D1*
X30970Y29142D1*
X30824Y29094D1*
X30679D1*
X30533Y29142D1*
X30485Y29192D1*
X30435Y29288D1*
X21813Y19047D2*
X21764Y19144D1*
X21667Y19242D1*
X21570Y19290D1*
X21376D1*
X21278Y19242D1*
X21182Y19144D1*
X21132Y19047D1*
X21084Y18901D1*
Y18658D1*
X21132Y18513D1*
X21182Y18415D1*
X21278Y18319D1*
X21376Y18269D1*
X21570D1*
X21667Y18319D1*
X21764Y18415D1*
X21813Y18513D1*
X22618Y19144D2*
X22570Y19241D1*
X22424Y19289D1*
X22327D1*
X22181Y19241D1*
X22083Y19095D1*
X22035Y18852D1*
Y18609D1*
X22083Y18415D1*
X22181Y18317D1*
X22327Y18269D1*
X22375D1*
X22520Y18317D1*
X22618Y18415D1*
X22666Y18561D1*
Y18609D1*
X22618Y18755D1*
X22520Y18852D1*
X22375Y18900D1*
X22327D1*
X22181Y18852D1*
X22083Y18755D1*
X22035Y18609D1*
X23063Y11422D2*
X23015Y11519D1*
X22917Y11617D1*
X22820Y11665D1*
X22626D1*
X22528Y11617D1*
X22432Y11519D1*
X22382Y11422D1*
X22334Y11276D1*
Y11033D1*
X22382Y10888D1*
X22432Y10790D1*
X22528Y10694D1*
X22626Y10644D1*
X22820D1*
X22917Y10694D1*
X23015Y10790D1*
X23063Y10888D1*
X23480Y10644D2*
X23966Y11664D1*
X23285D1*
X35014Y28822D2*
X34965Y28919D1*
X34868Y29017D1*
X34771Y29065D1*
X34577D1*
X34479Y29017D1*
X34382Y28919D1*
X34333Y28822D1*
X34285Y28676D1*
Y28433D1*
X34333Y28288D1*
X34382Y28190D1*
X34479Y28094D1*
X34577Y28044D1*
X34771D1*
X34868Y28094D1*
X34965Y28190D1*
X35014Y28288D1*
X35478Y29064D2*
X35334Y29016D1*
X35284Y28919D1*
Y28821D1*
X35334Y28725D1*
X35430Y28675D1*
X35624Y28627D1*
X35770Y28579D1*
X35867Y28481D1*
X35915Y28384D1*
Y28238D1*
X35867Y28142D1*
X35819Y28092D1*
X35673Y28044D1*
X35478D1*
X35334Y28092D1*
X35284Y28142D1*
X35236Y28238D1*
Y28384D1*
X35284Y28481D1*
X35382Y28579D1*
X35527Y28627D1*
X35721Y28675D1*
X35819Y28725D1*
X35867Y28821D1*
Y28919D1*
X35819Y29016D1*
X35673Y29064D1*
X35478D1*
X31113Y11372D2*
X31065Y11469D1*
X30967Y11567D1*
X30871Y11615D1*
X30676D1*
X30579Y11567D1*
X30482Y11469D1*
X30433Y11372D1*
X30384Y11226D1*
Y10983D1*
X30433Y10838D1*
X30482Y10740D1*
X30579Y10644D1*
X30676Y10594D1*
X30871D1*
X30967Y10644D1*
X31065Y10740D1*
X31113Y10838D1*
X31968Y11275D2*
X31918Y11129D1*
X31822Y11031D1*
X31676Y10983D1*
X31627D1*
X31481Y11031D1*
X31385Y11129D1*
X31335Y11275D1*
Y11323D1*
X31385Y11469D1*
X31481Y11566D1*
X31627Y11614D1*
X31676D1*
X31822Y11566D1*
X31918Y11469D1*
X31968Y11275D1*
Y11031D1*
X31918Y10788D1*
X31822Y10642D1*
X31676Y10594D1*
X31579D1*
X31433Y10642D1*
X31385Y10740D1*
X58978Y12280D2*
X58881Y12232D1*
X58783Y12134D1*
X58735Y12037D1*
Y11843D1*
X58783Y11745D1*
X58881Y11649D1*
X58978Y11599D1*
X59124Y11551D1*
X59367D1*
X59512Y11599D1*
X59610Y11649D1*
X59706Y11745D1*
X59756Y11843D1*
Y12037D1*
X59706Y12134D1*
X59610Y12232D1*
X59512Y12280D1*
X58930Y12502D2*
X58881Y12600D1*
X58736Y12746D1*
X59756D1*
X58736Y13260D2*
X58784Y13114D1*
X58930Y13017D1*
X59173Y12968D1*
X59319D1*
X59562Y13017D1*
X59708Y13114D1*
X59756Y13260D1*
Y13357D1*
X59708Y13503D1*
X59562Y13599D1*
X59319Y13649D1*
X59173D1*
X58930Y13599D1*
X58784Y13503D1*
X58736Y13357D1*
Y13260D1*
X58930Y13599D2*
X59562Y13017D1*
X58878Y15299D2*
X58781Y15250D1*
X58683Y15153D1*
X58635Y15056D1*
Y14862D1*
X58683Y14764D1*
X58781Y14667D1*
X58878Y14618D1*
X59024Y14570D1*
X59267D1*
X59412Y14618D1*
X59510Y14667D1*
X59606Y14764D1*
X59656Y14862D1*
Y15056D1*
X59606Y15153D1*
X59510Y15250D1*
X59412Y15299D1*
X58830Y15521D2*
X58781Y15618D1*
X58636Y15764D1*
X59656D1*
X58830Y15987D2*
X58781Y16084D1*
X58636Y16230D1*
X59656D1*
X17477Y20185D2*
Y19164D1*
X17817D1*
X17963Y19214D1*
X18061Y19310D1*
X18109Y19408D1*
X18157Y19553D1*
Y19796D1*
X18109Y19942D1*
X18061Y20039D1*
X17963Y20137D1*
X17817Y20185D1*
X17477D1*
X18380Y19990D2*
X18477Y20039D1*
X18623Y20184D1*
Y19164D1*
X32256Y26875D2*
Y25854D1*
X32838D1*
X33061Y26680D2*
X33158Y26729D1*
X33304Y26874D1*
Y25854D1*
X34257Y31505D2*
Y30484D1*
X34840D1*
X35112Y31261D2*
Y31310D1*
X35160Y31407D1*
X35208Y31456D1*
X35306Y31504D1*
X35500D1*
X35597Y31456D1*
X35645Y31407D1*
X35695Y31310D1*
Y31213D1*
X35645Y31115D1*
X35549Y30970D1*
X35062Y30484D1*
X35743D1*
X22177Y29579D2*
X22614D1*
X22760Y29628D1*
X22809Y29676D1*
X22857Y29773D1*
Y29871D1*
X22809Y29967D1*
X22760Y30017D1*
X22614Y30065D1*
X22177D1*
Y29044D1*
X22517Y29579D2*
X22857Y29044D1*
X23080Y29870D2*
X23177Y29919D1*
X23323Y30064D1*
Y29044D1*
X18358Y26929D2*
X18795D1*
X18941Y26978D1*
X18991Y27026D1*
X19039Y27123D1*
Y27221D1*
X18991Y27317D1*
X18941Y27367D1*
X18795Y27415D1*
X18358D1*
Y26394D1*
X18699Y26929D2*
X19039Y26394D1*
X19311Y27171D2*
Y27220D1*
X19359Y27317D1*
X19407Y27366D1*
X19505Y27414D1*
X19699D1*
X19796Y27366D1*
X19844Y27317D1*
X19893Y27220D1*
Y27123D1*
X19844Y27025D1*
X19747Y26880D1*
X19261Y26394D1*
X19942D1*
X35208Y22079D2*
X35645D1*
X35791Y22128D1*
X35841Y22176D1*
X35889Y22273D1*
Y22371D1*
X35841Y22467D1*
X35791Y22517D1*
X35645Y22565D1*
X35208D1*
Y21544D1*
X35549Y22079D2*
X35889Y21544D1*
X36209Y22564D2*
X36742D1*
X36451Y22175D1*
X36597D1*
X36694Y22127D1*
X36742Y22079D1*
X36792Y21933D1*
Y21836D1*
X36742Y21690D1*
X36646Y21592D1*
X36500Y21544D1*
X36354D1*
X36209Y21592D1*
X36161Y21642D1*
X36111Y21738D1*
X13534Y21629D2*
X13971D1*
X14117Y21678D1*
X14166Y21726D1*
X14215Y21823D1*
Y21921D1*
X14166Y22017D1*
X14117Y22067D1*
X13971Y22115D1*
X13534D1*
Y21094D1*
X13874Y21629D2*
X14215Y21094D1*
X14923D2*
Y22114D1*
X14437Y21434D1*
X15166D1*
X13508Y23029D2*
X13945D1*
X14091Y23078D1*
X14141Y23126D1*
X14189Y23223D1*
Y23321D1*
X14141Y23417D1*
X14091Y23467D1*
X13945Y23515D1*
X13508D1*
Y22494D1*
X13849Y23029D2*
X14189Y22494D1*
X14994Y23514D2*
X14509D1*
X14461Y23077D1*
X14509Y23125D1*
X14655Y23175D1*
X14800D1*
X14946Y23125D1*
X15043Y23029D1*
X15092Y22883D1*
Y22786D1*
X15043Y22640D1*
X14946Y22542D1*
X14800Y22494D1*
X14655D1*
X14509Y22542D1*
X14461Y22592D1*
X14411Y22688D1*
X13733Y16529D2*
X14170D1*
X14316Y16578D1*
X14365Y16626D1*
X14414Y16723D1*
Y16821D1*
X14365Y16917D1*
X14316Y16967D1*
X14170Y17015D1*
X13733D1*
Y15994D1*
X14073Y16529D2*
X14414Y15994D1*
X15219Y16869D2*
X15170Y16966D1*
X15024Y17014D1*
X14928D1*
X14782Y16966D1*
X14684Y16820D1*
X14636Y16577D1*
Y16334D1*
X14684Y16140D1*
X14782Y16042D1*
X14928Y15994D1*
X14976D1*
X15121Y16042D1*
X15219Y16140D1*
X15267Y16286D1*
Y16334D1*
X15219Y16480D1*
X15121Y16577D1*
X14976Y16625D1*
X14928D1*
X14782Y16577D1*
X14684Y16480D1*
X14636Y16334D1*
X13508Y24479D2*
X13945D1*
X14091Y24528D1*
X14141Y24576D1*
X14189Y24673D1*
Y24771D1*
X14141Y24867D1*
X14091Y24917D1*
X13945Y24965D1*
X13508D1*
Y23944D1*
X13849Y24479D2*
X14189Y23944D1*
X14605D2*
X15092Y24964D1*
X14411D1*
X35359Y14779D2*
X35796D1*
X35942Y14828D1*
X35991Y14876D1*
X36039Y14973D1*
Y15071D1*
X35991Y15167D1*
X35942Y15217D1*
X35796Y15265D1*
X35359D1*
Y14244D1*
X35699Y14779D2*
X36039Y14244D1*
X36504Y15264D2*
X36359Y15216D1*
X36310Y15119D1*
Y15021D1*
X36359Y14925D1*
X36456Y14875D1*
X36650Y14827D1*
X36796Y14779D1*
X36893Y14681D1*
X36941Y14584D1*
Y14438D1*
X36893Y14342D1*
X36845Y14292D1*
X36699Y14244D1*
X36504D1*
X36359Y14292D1*
X36310Y14342D1*
X36262Y14438D1*
Y14584D1*
X36310Y14681D1*
X36408Y14779D1*
X36553Y14827D1*
X36747Y14875D1*
X36845Y14925D1*
X36893Y15021D1*
Y15119D1*
X36845Y15216D1*
X36699Y15264D1*
X36504D1*
X47560Y14119D2*
X47463Y14217D1*
X47317Y14265D1*
X47123D1*
X46977Y14217D1*
X46879Y14119D1*
Y14022D1*
X46929Y13925D1*
X46977Y13876D1*
X47074Y13828D1*
X47366Y13730D1*
X47463Y13682D1*
X47512Y13633D1*
X47560Y13536D1*
Y13390D1*
X47463Y13294D1*
X47317Y13244D1*
X47123D1*
X46977Y13294D1*
X46879Y13390D1*
X47782Y14265D2*
X48026Y13244D1*
X48268Y14265D1*
X48511Y13244D1*
X48755Y14265D1*
X48977Y14070D2*
X49075Y14119D1*
X49221Y14264D1*
Y13244D1*
X44491Y23219D2*
X44395Y23317D1*
X44249Y23365D1*
X44055D1*
X43909Y23317D1*
X43811Y23219D1*
Y23122D1*
X43860Y23025D1*
X43909Y22976D1*
X44005Y22928D1*
X44297Y22830D1*
X44395Y22782D1*
X44443Y22733D1*
X44491Y22636D1*
Y22490D1*
X44395Y22394D1*
X44249Y22344D1*
X44055D1*
X43909Y22394D1*
X43811Y22490D1*
X44714Y23365D2*
X44957Y22344D1*
X45200Y23365D1*
X45443Y22344D1*
X45686Y23365D1*
X45958Y23121D2*
Y23170D1*
X46006Y23267D1*
X46055Y23316D1*
X46152Y23364D1*
X46347D1*
X46443Y23316D1*
X46491Y23267D1*
X46541Y23170D1*
Y23073D1*
X46491Y22975D1*
X46395Y22830D1*
X45909Y22344D1*
X46589D1*
X25666Y20815D2*
Y19794D1*
X25325Y20815D2*
X26006D1*
X26228Y20280D2*
X26666D1*
X26811Y20329D1*
X26860Y20378D1*
X26909Y20475D1*
Y20621D1*
X26860Y20717D1*
X26811Y20767D1*
X26666Y20815D1*
X26228D1*
Y19794D1*
X27131Y20620D2*
X27229Y20669D1*
X27375Y20814D1*
Y19794D1*
X25547Y22815D2*
Y21794D1*
X25207Y22815D2*
X25887D1*
X26110Y22280D2*
X26548D1*
X26693Y22329D1*
X26742Y22378D1*
X26790Y22475D1*
Y22621D1*
X26742Y22717D1*
X26693Y22767D1*
X26548Y22815D1*
X26110D1*
Y21794D1*
X27062Y22571D2*
Y22620D1*
X27110Y22717D1*
X27159Y22766D1*
X27256Y22814D1*
X27451D1*
X27547Y22766D1*
X27595Y22717D1*
X27645Y22620D1*
Y22523D1*
X27595Y22425D1*
X27499Y22280D1*
X27013Y21794D1*
X27693D1*
X22985Y32997D2*
X24006D1*
X22985Y32657D2*
Y33337D1*
X23520Y33560D2*
Y33998D1*
X23471Y34143D1*
X23422Y34192D1*
X23325Y34240D1*
X23179D1*
X23083Y34192D1*
X23033Y34143D1*
X22985Y33998D1*
Y33560D1*
X24006D1*
X22986Y34560D2*
Y35094D1*
X23375Y34803D1*
Y34949D1*
X23423Y35045D1*
X23471Y35094D1*
X23617Y35143D1*
X23714D1*
X23860Y35094D1*
X23958Y34997D1*
X24006Y34851D1*
Y34705D1*
X23958Y34560D1*
X23908Y34512D1*
X23812Y34463D1*
X20535Y33073D2*
X21556D1*
X20535Y32733D2*
Y33413D1*
X21070Y33636D2*
Y34074D1*
X21021Y34218D1*
X20972Y34268D1*
X20875Y34316D1*
X20729D1*
X20633Y34268D1*
X20583Y34218D1*
X20535Y34074D1*
Y33636D1*
X21556D1*
Y35025D2*
X20536D1*
X21216Y34538D1*
Y35267D1*
X18235Y33097D2*
X19256D1*
X18235Y32757D2*
Y33437D1*
X18770Y33660D2*
Y34098D1*
X18721Y34243D1*
X18672Y34292D1*
X18575Y34340D1*
X18429D1*
X18333Y34292D1*
X18283Y34243D1*
X18235Y34098D1*
Y33660D1*
X19256D1*
X18236Y35145D2*
Y34660D1*
X18673Y34612D1*
X18625Y34660D1*
X18575Y34806D1*
Y34951D1*
X18625Y35097D1*
X18721Y35195D1*
X18867Y35243D1*
X18964D1*
X19110Y35195D1*
X19208Y35097D1*
X19256Y34951D1*
Y34806D1*
X19208Y34660D1*
X19158Y34612D1*
X19062Y34563D1*
X15885Y33172D2*
X16906D1*
X15885Y32832D2*
Y33512D1*
X16420Y33734D2*
Y34172D1*
X16371Y34317D1*
X16322Y34367D1*
X16225Y34415D1*
X16079D1*
X15983Y34367D1*
X15933Y34317D1*
X15885Y34172D1*
Y33734D1*
X16906D1*
X16031Y35220D2*
X15934Y35172D1*
X15886Y35026D1*
Y34929D1*
X15934Y34783D1*
X16080Y34686D1*
X16323Y34637D1*
X16566D1*
X16760Y34686D1*
X16858Y34783D1*
X16906Y34929D1*
Y34978D1*
X16858Y35122D1*
X16760Y35220D1*
X16614Y35268D1*
X16566D1*
X16420Y35220D1*
X16323Y35122D1*
X16275Y34978D1*
Y34929D1*
X16323Y34783D1*
X16420Y34686D1*
X16566Y34637D1*
X13235Y33197D2*
X14256D1*
X13235Y32857D2*
Y33537D1*
X13770Y33760D2*
Y34198D1*
X13721Y34343D1*
X13672Y34392D1*
X13575Y34440D1*
X13429D1*
X13333Y34392D1*
X13283Y34343D1*
X13235Y34198D1*
Y33760D1*
X14256D1*
Y34857D2*
X13236Y35343D1*
Y34663D1*
X29127Y21365D2*
Y20636D1*
X29175Y20490D1*
X29273Y20394D1*
X29419Y20344D1*
X29515D1*
X29661Y20394D1*
X29759Y20490D1*
X29807Y20636D1*
Y21365D1*
X30030Y21170D2*
X30127Y21219D1*
X30273Y21364D1*
Y20344D1*
X21008Y25440D2*
Y24711D1*
X21057Y24565D1*
X21154Y24469D1*
X21300Y24419D1*
X21397D1*
X21543Y24469D1*
X21641Y24565D1*
X21689Y24711D1*
Y25440D1*
X21961Y25196D2*
Y25245D1*
X22009Y25342D1*
X22057Y25391D1*
X22155Y25439D1*
X22349D1*
X22446Y25391D1*
X22494Y25342D1*
X22543Y25245D1*
Y25148D1*
X22494Y25050D1*
X22397Y24906D1*
X21911Y24419D1*
X22592D1*
X18528Y18165D2*
X18917Y17679D1*
Y17144D1*
X19306Y18165D2*
X18917Y17679D1*
X19528Y17970D2*
X19626Y18019D1*
X19772Y18164D1*
Y17144D1*
M02*
